<?xml version="1.0" encoding="UTF-8"?>
<svg width="200" height="200" viewBox="0 0 200 200" fill="none" xmlns="http://www.w3.org/2000/svg">
    <!-- Background Circle -->
    <circle cx="100" cy="100" r="90" fill="#F3F4F6"/>
    
    <!-- Sun -->
    <circle cx="100" cy="100" r="30" fill="#FFD700"/>
    <g transform="rotate(0, 100, 100)">
        <rect x="95" y="30" width="10" height="20" rx="5" fill="#FFD700"/>
        <rect x="95" y="150" width="10" height="20" rx="5" fill="#FFD700"/>
        <rect x="30" y="95" width="20" height="10" rx="5" fill="#FFD700"/>
        <rect x="150" y="95" width="20" height="10" rx="5" fill="#FFD700"/>
    </g>
    <g transform="rotate(45, 100, 100)">
        <rect x="95" y="30" width="10" height="20" rx="5" fill="#FFD700"/>
        <rect x="95" y="150" width="10" height="20" rx="5" fill="#FFD700"/>
        <rect x="30" y="95" width="20" height="10" rx="5" fill="#FFD700"/>
        <rect x="150" y="95" width="20" height="10" rx="5" fill="#FFD700"/>
    </g>
    
    <!-- Hills -->
    <path d="M0 150 Q50 100 100 150 Q150 200 200 150" fill="#4CAF50"/>
    
    <!-- Trees -->
    <path d="M30 150 L30 120 L20 120 L30 100 L40 120 L30 120" fill="#2E7D32"/>
    <path d="M60 150 L60 120 L50 120 L60 100 L70 120 L60 120" fill="#2E7D32"/>
    <path d="M140 150 L140 120 L130 120 L140 100 L150 120 L140 120" fill="#2E7D32"/>
    <path d="M170 150 L170 120 L160 120 L170 100 L180 120 L170 120" fill="#2E7D32"/>
    
    <!-- Field Lines -->
    <path d="M0 150 L200 150" stroke="#4CAF50" stroke-width="2" stroke-dasharray="5,5"/>
    <path d="M0 160 L200 160" stroke="#4CAF50" stroke-width="2" stroke-dasharray="5,5"/>
    <path d="M0 170 L200 170" stroke="#4CAF50" stroke-width="2" stroke-dasharray="5,5"/>
    
    <!-- Tracking Dots -->
    <circle cx="50" cy="130" r="3" fill="#4F46E5"/>
    <circle cx="100" cy="130" r="3" fill="#4F46E5"/>
    <circle cx="150" cy="130" r="3" fill="#4F46E5"/>
    
    <!-- Text -->
    <text x="100" y="190" text-anchor="middle" font-family="Arial" font-size="12" fill="#4F46E5">
        AgriTrack Pro
    </text>
</svg> 